HIERARCHY
ROOT hip
{
  OFFSET 0 0 0
  CHANNELS 6 Xposition Yposition Zposition Zrotation Yrotation Xrotation
  JOINT abdomen
  {
    OFFSET 0 20.6881 -0.73152
    CHANNELS 3 Zrotation Xrotation Yrotation
    JOINT chest
    {
      OFFSET 0 11.7043 -0.48768
      CHANNELS 3 Zrotation Xrotation Yrotation
      JOINT neck
      {
        OFFSET 0 22.1894 -2.19456
        CHANNELS 3 Zrotation Xrotation Yrotation
        JOINT head
        {
          OFFSET -0.24384 7.07133 1.2192
          CHANNELS 3 Zrotation Xrotation Yrotation
          JOINT leftEye
          {
            OFFSET 4.14528 8.04674 8.04672
            CHANNELS 3 Zrotation Xrotation Yrotation
            End Site
            {
              OFFSET 1 0 0
            }
          }
          JOINT rightEye
          {
            OFFSET -3.6576 8.04674 8.04672
            CHANNELS 3 Zrotation Xrotation Yrotation
            End Site
            {
              OFFSET 1 0 0
            }
          }
        }
      }
      JOINT rCollar
      {
        OFFSET -2.68224 19.2634 -4.8768
        CHANNELS 3 Zrotation Xrotation Yrotation
        JOINT rShldr
        {
          OFFSET -8.77824 -1.95073 1.46304
          CHANNELS 3 Zrotation Xrotation Yrotation
          JOINT rForeArm
          {
            OFFSET -28.1742 -1.7115 0.48768
            CHANNELS 3 Zrotation Xrotation Yrotation
            JOINT rHand
            {
              OFFSET -22.5879 0.773209 7.07136
              CHANNELS 3 Zrotation Xrotation Yrotation
              JOINT rThumb1
              {
                OFFSET -1.2192 -0.487915 3.41376
                CHANNELS 3 Zrotation Xrotation Yrotation
                JOINT rThumb2
                {
                  OFFSET -3.37035 -0.52449 3.41376
                  CHANNELS 3 Zrotation Xrotation Yrotation
                  End Site
                  {
                    OFFSET -1.78271 -1.18214 1.43049
                  }
                }
              }
              JOINT rIndex1
              {
                OFFSET -7.75947 0.938293 5.60832
                CHANNELS 3 Zrotation Xrotation Yrotation
                JOINT rIndex2
                {
                  OFFSET -2.54057 -0.884171 1.56538
                  CHANNELS 3 Zrotation Xrotation Yrotation
                  End Site
                  {
                    OFFSET -1.62519 -0.234802 1.16502
                  }
                }
              }
              JOINT rMid1
              {
                OFFSET -8.24714 1.18213 3.41376
                CHANNELS 3 Zrotation Xrotation Yrotation
                JOINT rMid2
                {
                  OFFSET -3.10165 -0.590103 1.0647
                  CHANNELS 3 Zrotation Xrotation Yrotation
                  End Site
                  {
                    OFFSET -2.48547 -0.328903 0.83742
                  }
                }
              }
              JOINT rRing1
              {
                OFFSET -8.82822 0.546677 1.51678
                CHANNELS 3 Zrotation Xrotation Yrotation
                JOINT rRing2
                {
                  OFFSET -2.60934 -0.819778 -0.0198488
                  CHANNELS 3 Zrotation Xrotation Yrotation
                  End Site
                  {
                    OFFSET -2.33842 -0.294052 0.168128
                  }
                }
              }
              JOINT rPinky1
              {
                OFFSET -8.27202 -0.0477905 -0.4584
                CHANNELS 3 Zrotation Xrotation Yrotation
                JOINT rPinky2
                {
                  OFFSET -1.82734 -0.647385 -0.700984
                  CHANNELS 3 Zrotation Xrotation Yrotation
                  End Site
                  {
                    OFFSET -1.69225 -0.51767 -0.607171
                  }
                }
              }
            }
          }
        }
      }
      JOINT lCollar
      {
        OFFSET 2.68224 19.2634 -4.8768
        CHANNELS 3 Zrotation Xrotation Yrotation
        JOINT lShldr
        {
          OFFSET 8.77824 -1.95073 1.46304
          CHANNELS 3 Zrotation Xrotation Yrotation
          JOINT lForeArm
          {
            OFFSET 28.1742 -1.7115 0.48768
            CHANNELS 3 Zrotation Xrotation Yrotation
            JOINT lHand
            {
              OFFSET 22.5879 0.773209 7.07136
              CHANNELS 3 Zrotation Xrotation Yrotation
              JOINT lThumb1
              {
                OFFSET 1.2192 -0.487915 3.41376
                CHANNELS 3 Zrotation Xrotation Yrotation
                JOINT lThumb2
                {
                  OFFSET 3.37035 -0.52449 3.41376
                  CHANNELS 3 Zrotation Xrotation Yrotation
                  End Site
                  {
                    OFFSET 1.78271 -1.18214 1.43049
                  }
                }
              }
              JOINT lIndex1
              {
                OFFSET 7.75947 0.938293 5.60832
                CHANNELS 3 Zrotation Xrotation Yrotation
                JOINT lIndex2
                {
                  OFFSET 2.54057 -0.884171 1.56538
                  CHANNELS 3 Zrotation Xrotation Yrotation
                  End Site
                  {
                    OFFSET 1.62519 -0.234802 1.16502
                  }
                }
              }
              JOINT lMid1
              {
                OFFSET 8.24714 1.18213 3.41376
                CHANNELS 3 Zrotation Xrotation Yrotation
                JOINT lMid2
                {
                  OFFSET 3.10165 -0.590103 1.0647
                  CHANNELS 3 Zrotation Xrotation Yrotation
                  End Site
                  {
                    OFFSET 2.48547 -0.328903 0.83742
                  }
                }
              }
              JOINT lRing1
              {
                OFFSET 8.82822 0.546677 1.51678
                CHANNELS 3 Zrotation Xrotation Yrotation
                JOINT lRing2
                {
                  OFFSET 2.60934 -0.819778 -0.0198488
                  CHANNELS 3 Zrotation Xrotation Yrotation
                  End Site
                  {
                    OFFSET 2.33842 -0.294052 0.168128
                  }
                }
              }
              JOINT lPinky1
              {
                OFFSET 8.27202 -0.0477905 -0.4584
                CHANNELS 3 Zrotation Xrotation Yrotation
                JOINT lPinky2
                {
                  OFFSET 1.82734 -0.647385 -0.700984
                  CHANNELS 3 Zrotation Xrotation Yrotation
                  End Site
                  {
                    OFFSET 1.69225 -0.51767 -0.607171
                  }
                }
              }
            }
          }
        }
      }
    }
  }
  JOINT rButtock
  {
    OFFSET -8.77824 4.35084 1.2192
    CHANNELS 3 Zrotation Xrotation Yrotation
    JOINT rThigh
    {
      OFFSET 0 -1.70687 -2.19456
      CHANNELS 3 Zrotation Xrotation Yrotation
      JOINT rShin
      {
        OFFSET 0 -36.8199 0.73152
        CHANNELS 3 Zrotation Xrotation Yrotation
        JOINT rFoot
        {
          OFFSET 0.73152 -45.1104 -5.12064
          CHANNELS 3 Zrotation Xrotation Yrotation
          End Site
          {
            OFFSET -1.1221 -3.69964 12.103
          }
        }
      }
    }
  }
  JOINT lButtock
  {
    OFFSET 8.77824 4.35084 1.2192
    CHANNELS 3 Zrotation Xrotation Yrotation
    JOINT lThigh
    {
      OFFSET 0 -1.70687 -2.19456
      CHANNELS 3 Zrotation Xrotation Yrotation
      JOINT lShin
      {
        OFFSET 0 -36.8199 0.73152
        CHANNELS 3 Zrotation Xrotation Yrotation
        JOINT lFoot
        {
          OFFSET -0.73152 -45.1104 -5.12064
          CHANNELS 3 Zrotation Xrotation Yrotation
          End Site
          {
            OFFSET 1.1221 -3.69964 12.103
          }
        }
      }
    }
  }
}
MOTION
Frames:	6
Frame Time:	0.03333
33.7849 72.7293 -41.3055 -175.061282 65.276017 -169.345885 2.527773 2.528164 106.241519 3.391355 3.659986 -102.688261 -7.584133 19.894819 -152.386024 17.394861 30.403572 126.315382 -23.308782 -8.871509 41.22216 -54.607829 -1.801873 3.489689 0.305731 -44.868102 1.983725 170.713107 -76.819761 99.712454 89.948604 -50.940213 -89.95386 -138.761014 34.671957 104.117849 -146.364968 23.845604 68.223322 80.302092 -5.14001 64.483485 65.049555 -68.279265 18.144412 -64.246168 65.477791 21.227829 -48.76469 56.695401 20.477224 15.261019 12.006729 86.801219 22.374732 2.25411 12.125793 -173.230069 -4.145608 161.001108 173.236438 -52.341002 122.494832 157.448019 -59.8186 103.693136 148.921003 -8.41607 -151.89055 -118.174088 68.399709 145.877289 -144.076764 -7.879726 5.608962 155.563436 47.441023 -108.178211 -88.823751 -49.658845 -43.415077 160.918073 38.298157 -135.439502 -89.477763 -78.697783 -55.595913 -30.78351 71.852203 110.743825 -10.400156 36.08824 -6.302574 -14.606347 62.561664 -21.88149 11.827318 -3.687466 0.32095 -33.803367 -31.218112 -60.893266 -48.252935 32.422231 1.364068 -88.482518 -0.13105 164.011746 -87.47277 2.37684 -172.877389 -90.363069 34.524081 -178.913466 15.254689 54.035932 19.510061 -88.234786 56.889932 2.26344 -19.260125 -27.841322 -13.97824 37.593192 -19.837282 -113.786128 -58.136391 -37.945894 103.911038 121.27049 -29.823034 -57.438707
35.0471 71.9322 -43.5509 -171.92314 69.595341 -168.481648 3.130753 11.732677 52.614315 -6.985056 -1.461006 -49.98242 -14.48557 9.750011 -72.716706 26.039074 -2.951233 54.853969 -18.847967 -5.041183 29.708055 -55.143325 -3.947957 7.552887 -88.800874 59.919137 81.379116 -49.204066 7.170766 39.462032 -172.451424 -66.196317 -61.8156 -27.13877 6.349126 -6.498678 -92.323594 40.91631 30.61191 58.499572 3.966927 33.544231 -41.845693 41.471779 31.31219 178.398163 -61.78042 79.302496 -14.749848 -56.159183 -12.315113 1.159356 -28.498289 -91.944807 25.80941 -0.852602 12.469762 -140.92071 78.443673 126.394035 -156.871455 -52.482309 122.330487 -30.378959 11.704952 132.064878 112.321453 46.798098 -126.882552 -128.922907 -50.21908 -149.316129 165.596399 5.157501 -21.163721 -153.147753 -38.647015 -107.48197 179.434084 3.275732 -93.605727 76.96714 9.779113 22.829463 161.937188 14.143354 -121.558642 -22.633528 -62.483584 -85.722503 171.704266 -53.078509 -127.054237 92.010447 -71.742718 86.549154 64.13214 -75.341505 77.723563 -59.348286 -9.262767 -28.297644 82.387263 62.745932 -164.187493 -43.162377 10.550105 99.438834 90.11681 -38.739004 127.999871 46.901647 66.177142 130.56366 -63.791517 -19.536239 -156.470828 -95.877925 -25.687408 -171.073369 -12.631561 71.735497 -164.144101 -154.95607 53.858402 -20.379321 -5.257439 72.860392 145.666203 5.852155 -22.452266 -134.660766
37.164 72.3986 -45.0546 -162.51645 70.581391 -163.719328 6.154686 20.684433 -0.0 -3.440315 -13.035826 1.589684 -12.174702 3.452599 -52.946068 16.835034 -6.229562 45.766377 -1.56043 -0.322875 23.379302 -50.609111 -10.702417 22.412306 -164.833423 -9.487874 143.630249 -32.977306 26.986369 -9.490397 -96.423197 36.509334 -101.173461 -16.516673 -73.301376 -24.751369 136.37678 -12.262176 131.038745 -112.266276 30.228795 -16.246677 -79.00224 38.458122 72.172501 92.355031 -74.590489 -6.244931 -30.809453 -2.27716 -3.186725 -98.471132 -37.372826 -162.891459 -121.426562 -7.108765 174.182824 -166.912776 -53.428508 126.053371 -7.580607 32.748818 138.79664 -150.236582 36.608467 -29.063426 -27.395083 -74.880274 8.117121 -43.028531 20.157302 -12.43417 -170.908094 -3.984504 -37.367347 -129.648208 -29.72368 -112.618734 -11.554425 -39.421376 -5.111544 -53.430238 -32.073874 -27.545291 12.503094 -42.743824 21.498968 -142.074538 29.792823 62.165524 -98.136128 -46.389847 -80.475135 -177.472335 3.644883 153.983043 -18.216812 -63.322597 -6.999169 -32.200938 -35.144209 -48.795135 -153.497912 -47.581688 -119.699455 154.192109 -10.047002 -159.384591 92.610565 -33.818773 113.807507 35.115293 79.222004 71.381681 9.040567 -65.314062 -76.03649 56.523527 71.822712 -155.902696 -80.527813 75.755556 -84.985336 -169.625211 38.448784 -16.405893 -39.470373 66.191882 155.580124 18.856197 -27.434828 -112.707532
38.4174 70.7375 -45.9075 -164.745486 65.058048 -166.402386 1.658613 22.809598 -0.0 3.379665 -17.124828 8.79247 -8.278321 5.951184 -61.536221 20.955767 -10.404857 60.88898 2.948483 0.079303 3.080651 8.742207 3.191284 40.046415 -133.245855 42.188325 125.290888 -81.579745 35.93273 55.242092 -84.771282 29.596987 -101.456041 168.500342 -86.952332 155.561776 7.38659 -84.242662 15.015903 165.279208 42.039535 -174.276515 -44.576907 44.788483 30.212503 53.608587 74.978784 0.03071 -28.209402 -3.733223 1.978325 -144.471455 -13.053719 -177.301446 -103.103421 1.61969 177.700917 65.367034 30.264099 18.428573 -43.517156 1.060622 -172.528013 -33.978771 -39.455003 -159.874319 42.293448 62.136428 -63.695781 -142.724639 4.093513 -164.166244 34.719233 17.071185 -115.078596 -20.761559 -3.621249 12.61616 -11.911209 8.85011 18.659258 56.217271 -50.708678 -42.323297 34.029899 37.827126 -4.447893 134.610631 63.987653 41.145383 107.277576 31.676871 -97.049691 -25.928193 42.682786 -69.025377 64.801866 66.018251 -94.199892 -79.131975 71.552777 82.900668 7.501434 -14.523586 -53.093213 143.035118 30.091877 136.282298 -148.416662 -86.785945 -180.0 -63.194086 57.923488 -113.17731 -22.881539 -64.073977 -100.409885 -91.124571 -28.609239 -163.528286 0.564674 -8.404494 -0.635722 36.761918 -38.466951 -0.0 -58.116817 42.084941 -57.276054 -96.878055 63.743814 128.930087
38.7131 69.5389 -46.543099999999995 -164.850124 62.298044 -166.595676 -2.21478 18.25049 -152.898086 -1.121292 14.587938 166.706144 16.921361 0.443954 89.914617 -21.160928 25.395816 -80.240518 16.052525 -1.206908 -8.543581 72.667304 16.305621 22.044918 -58.619222 59.333571 54.59702 159.115403 -15.706423 112.417789 -63.213585 -2.177314 166.96322 150.559914 -81.126464 133.261701 19.761991 -69.349095 26.929289 -75.967342 -7.256984 -114.506571 -3.464564 -10.437605 -13.561779 169.183978 30.344225 -140.756867 -21.75552 -9.626754 13.830065 -179.111972 7.075138 -175.789059 45.984494 -0.108658 -2.927305 -72.714452 -59.754257 -23.464496 95.518848 -0.285478 20.255431 -144.629542 -61.610962 -24.046262 -2.221575 37.380889 -16.052807 87.824608 17.658828 -55.487431 82.290803 19.658929 104.441848 -99.840794 -61.671452 -73.301437 -77.076797 78.751874 92.309286 -156.093655 34.655551 -84.457276 60.188377 54.617564 -18.846523 175.793124 -48.404395 113.818918 1.033471 18.887667 4.042057 10.797362 -10.270215 71.842678 -17.951239 11.99806 14.711133 35.246164 59.552185 -22.932896 107.686342 -62.849486 47.681783 79.920934 8.26031 86.488152 -44.026887 -39.013782 -100.604506 -24.498908 41.502011 -70.610536 -37.423675 -60.79454 73.66089 -70.519604 -45.093106 11.211699 30.771179 14.633714 34.282375 -37.420371 -53.913321 -43.434179 -48.168554 41.352235 -37.573863 -39.145776 1.199285 103.087785
38.3471 69.1879 -47.3431 -164.426186 62.891225 -166.121389 -9.152312 19.822686 -0.0 13.883102 -12.670235 22.049574 22.088939 -2.46614 125.475403 7.597523 42.227357 -125.282674 39.507305 -1.356829 -3.777132 79.942942 14.379772 17.116652 -36.311763 55.530893 33.771926 -171.974835 -7.378552 114.597934 -77.579334 16.045603 -157.53891 118.918635 -81.561034 99.519456 61.917371 -51.302958 59.364282 175.921803 -0.615083 -167.162224 -156.666954 -7.62914 127.50876 -62.764074 -34.662277 45.252152 -153.985893 18.220219 105.693132 -1.851226 57.260231 56.001264 40.536016 -0.261829 -0.468734 -54.473963 0.089689 -4.163117 -59.209486 48.346173 -160.822396 128.467845 11.033036 3.317442 -7.213878 13.725823 -3.932686 2.391767 -15.224214 -89.813775 -118.174028 80.77383 -111.065488 -170.550912 5.662588 -146.048035 -46.060139 -0.566329 63.350225 -59.373691 -23.169116 -80.081079 27.087222 -59.53171 35.722014 -171.695386 11.95174 -15.175817 167.252082 0.983742 -165.897769 32.790953 10.765579 -39.159357 -40.584306 -1.732355 7.44373 32.306472 -6.549483 9.612908 -41.044797 16.102313 81.596812 -155.653469 -14.29795 -135.32637 35.057626 31.625298 151.72407 10.639414 53.711778 166.880899 -48.221001 53.524598 117.655868 -25.681886 1.912364 -88.393778 -73.939782 15.37586 -27.385367 124.809989 -16.591672 -111.060979 -22.214879 -60.214969 18.523735 -104.293849 57.977115 131.541744
